<svg xmlns="http://www.w3.org/2000/svg" viewBox="0 0 32 32">
  <defs>
    <linearGradient id="g" x1="0" y1="0" x2="1" y2="1">
      <stop offset="0%" stop-color="#34a853"/>
      <stop offset="50%" stop-color="#1a73e8"/>
      <stop offset="100%" stop-color="#ea4335"/>
    </linearGradient>
  </defs>
  <rect width="32" height="32" rx="8" fill="url(#g)"/>
  <path fill="#fff" d="M16 7c-3.5 0-6.3 2.5-6.9 5.8h2.1c.5-2 2.3-3.5 4.6-3.5 2.6 0 4.7 2.1 4.7 4.7 0 .6-.1 1.1-.3 1.6h2.2c.2-.5.3-1.1.3-1.7C23 10.5 20 7 16 7zm-6.9 12.2C8.5 20.3 8 21.6 8 23h2c0-.8.2-1.5.5-2.1-1-.4-1.8-1.1-2.4-2.1zm8.9 3.8c-1.4 0-2.6-.6-3.5-1.5l-1.4 1.4c1.2 1.2 2.9 2 4.8 2 3.7 0 6.7-2.6 7.4-6h-2.1c-.6 2.2-2.6 3.8-5 3.8z"/>
</svg>
